<svg width="25" height="25" viewBox="0 0 25 25" fill="none" xmlns="http://www.w3.org/2000/svg">
<path d="M12.5007 0.833328C14.0477 0.833328 15.5315 1.44791 16.6254 2.54187C17.7194 3.63583 18.334 5.11957 18.334 6.66666C18.334 8.21376 17.7194 9.69749 16.6254 10.7915C15.5315 11.8854 14.0477 12.5 12.5007 12.5C10.9536 12.5 9.46982 11.8854 8.37586 10.7915C7.2819 9.69749 6.66732 8.21376 6.66732 6.66666C6.66732 5.11957 7.2819 3.63583 8.37586 2.54187C9.46982 1.44791 10.9536 0.833328 12.5007 0.833328ZM12.5007 3.74999C11.7271 3.74999 10.9852 4.05729 10.4383 4.60427C9.89128 5.15125 9.58398 5.89311 9.58398 6.66666C9.58398 7.44021 9.89128 8.18207 10.4383 8.72906C10.9852 9.27604 11.7271 9.58333 12.5007 9.58333C13.2742 9.58333 14.0161 9.27604 14.563 8.72906C15.11 8.18207 15.4173 7.44021 15.4173 6.66666C15.4173 5.89311 15.11 5.15125 14.563 4.60427C14.0161 4.05729 13.2742 3.74999 12.5007 3.74999ZM12.5007 13.9583C16.3944 13.9583 24.1673 15.8979 24.1673 19.7917V24.1667H0.833984V19.7917C0.833984 15.8979 8.6069 13.9583 12.5007 13.9583ZM12.5007 16.7292C8.1694 16.7292 3.60482 18.8583 3.60482 19.7917V21.3958H21.3965V19.7917C21.3965 18.8583 16.8319 16.7292 12.5007 16.7292Z" fill="#1DA1F2"/>
</svg>
