<svg width="31" height="31" viewBox="0 0 31 31" fill="none" xmlns="http://www.w3.org/2000/svg">
<path d="M21.8577 18.4167C21.9744 17.4542 22.0619 16.4917 22.0619 15.5C22.0619 14.5083 21.9744 13.5458 21.8577 12.5833H26.7869C27.0202 13.5167 27.166 14.4937 27.166 15.5C27.166 16.5062 27.0202 17.4833 26.7869 18.4167H21.8577ZM19.2764 26.525C20.1514 24.9062 20.8223 23.1562 21.2889 21.3333H25.591C24.1781 23.7662 21.9366 25.6092 19.2764 26.525ZM18.9119 18.4167H12.0869C11.941 17.4542 11.8535 16.4917 11.8535 15.5C11.8535 14.5083 11.941 13.5312 12.0869 12.5833H18.9119C19.0431 13.5312 19.1452 14.5083 19.1452 15.5C19.1452 16.4917 19.0431 17.4542 18.9119 18.4167ZM15.4994 27.1083C14.2889 25.3583 13.3119 23.4187 12.7139 21.3333H18.2848C17.6869 23.4187 16.7098 25.3583 15.4994 27.1083ZM9.66602 9.66666H5.40768C6.80601 7.22718 9.04593 5.38132 11.7077 4.47499C10.8327 6.09374 10.1764 7.84374 9.66602 9.66666ZM5.40768 21.3333H9.66602C10.1764 23.1562 10.8327 24.9062 11.7077 26.525C9.05151 25.6087 6.81475 23.7654 5.40768 21.3333ZM4.21185 18.4167C3.97852 17.4833 3.83268 16.5062 3.83268 15.5C3.83268 14.4937 3.97852 13.5167 4.21185 12.5833H9.14102C9.02435 13.5458 8.93685 14.5083 8.93685 15.5C8.93685 16.4917 9.02435 17.4542 9.14102 18.4167H4.21185ZM15.4994 3.87707C16.7098 5.62707 17.6869 7.58124 18.2848 9.66666H12.7139C13.3119 7.58124 14.2889 5.62707 15.4994 3.87707ZM25.591 9.66666H21.2889C20.8325 7.86045 20.1566 6.11692 19.2764 4.47499C21.9598 5.39374 24.191 7.24582 25.591 9.66666ZM15.4994 0.916656C7.43477 0.916656 0.916016 7.47916 0.916016 15.5C0.916016 19.3677 2.45247 23.0771 5.18738 25.812C6.54156 27.1662 8.14922 28.2404 9.91855 28.9732C11.6879 29.7061 13.5842 30.0833 15.4994 30.0833C19.3671 30.0833 23.0764 28.5469 25.8113 25.812C28.5462 23.0771 30.0827 19.3677 30.0827 15.5C30.0827 13.5849 29.7055 11.6885 28.9726 9.91919C28.2397 8.14986 27.1655 6.5422 25.8113 5.18802C24.4571 3.83383 22.8495 2.75963 21.0802 2.02675C19.3108 1.29387 17.4145 0.916656 15.4994 0.916656Z" fill="#9B51E0"/>
</svg>
