<svg width="31" height="31" viewBox="0 0 31 31" fill="none" xmlns="http://www.w3.org/2000/svg">
<path d="M12.5244 14.4937C13.7785 9.81249 14.7702 6.74999 16.9577 6.74999C19.1452 6.74999 20.1369 9.81249 21.391 14.4937C22.791 19.7583 24.3952 25.7083 30.0827 25.7083V22.7917C26.8744 22.7917 25.7077 19.2042 24.2056 13.75C22.9077 8.87916 21.5514 3.83332 16.9577 3.83332C12.3639 3.83332 11.0077 8.87916 9.70977 13.75C8.25143 19.2042 7.04102 22.7917 3.83268 22.7917V0.916656H0.916016V30.0833H30.0827V27.1667H3.83268V25.7083C9.52018 25.7083 11.1244 19.7583 12.5244 14.4937Z" fill="#EB5757"/>
</svg>
