<svg width="31" height="31" viewBox="0 0 31 31" fill="none" xmlns="http://www.w3.org/2000/svg">
<path d="M27.166 15.5C27.166 12.4058 25.9369 9.43835 23.7489 7.25043C21.561 5.0625 18.5935 3.83334 15.4994 3.83334C12.4052 3.83334 9.4377 5.0625 7.24977 7.25043C5.06185 9.43835 3.83268 12.4058 3.83268 15.5C3.83268 18.5942 5.06185 21.5617 7.24977 23.7496C9.4377 25.9375 12.4052 27.1667 15.4994 27.1667C18.5935 27.1667 21.561 25.9375 23.7489 23.7496C25.9369 21.5617 27.166 18.5942 27.166 15.5ZM30.0827 15.5C30.0827 19.3677 28.5462 23.0771 25.8113 25.812C23.0764 28.5469 19.3671 30.0833 15.4994 30.0833C13.5842 30.0833 11.6879 29.7061 9.91855 28.9733C8.14922 28.2404 6.54156 27.1662 5.18738 25.812C2.45247 23.0771 0.916016 19.3677 0.916016 15.5C0.916016 11.6323 2.45247 7.92294 5.18738 5.18803C7.92228 2.45313 11.6316 0.916672 15.4994 0.916672C17.4145 0.916672 19.3108 1.29388 21.0802 2.02676C22.8495 2.75964 24.4571 3.83384 25.8113 5.18803C27.1655 6.54222 28.2397 8.14987 28.9726 9.91921C29.7055 11.6885 30.0827 13.5849 30.0827 15.5ZM12.5827 11.8542C12.5827 13.0208 11.5619 14.0417 10.3952 14.0417C9.22852 14.0417 8.20768 13.0208 8.20768 11.8542C8.20768 10.6875 9.22852 9.66667 10.3952 9.66667C11.5619 9.66667 12.5827 10.6875 12.5827 11.8542ZM22.791 11.8542C22.791 13.0208 21.7702 14.0417 20.6035 14.0417C19.4369 14.0417 18.416 13.0208 18.416 11.8542C18.416 10.6875 19.4369 9.66667 20.6035 9.66667C21.7702 9.66667 22.791 10.6875 22.791 11.8542ZM15.4994 23.1271C12.9473 23.1271 10.7014 22.0625 9.38893 20.4875L11.4598 18.4167C12.116 19.4667 13.6764 20.2104 15.4994 20.2104C17.3223 20.2104 18.8827 19.4667 19.5389 18.4167L21.6098 20.4875C20.2973 22.0625 18.0514 23.1271 15.4994 23.1271Z" fill="#F2994A"/>
</svg>
