<svg width="23" height="32" viewBox="0 0 23 32" fill="none" xmlns="http://www.w3.org/2000/svg">
<path d="M17.6375 3.83332H12.4167V0.916656H22.625V11.125H19.7083V5.88957L14.1229 11.475C14.782 12.4702 15.1867 13.612 15.3014 14.8001C15.4162 15.9883 15.2375 17.1864 14.7811 18.2893C14.3246 19.3923 13.6044 20.3663 12.6836 21.1259C11.7628 21.8855 10.6696 22.4074 9.5 22.6458V25.7083H12.4167V28.625H9.5V31.5417H6.58333V28.625H3.66667V25.7083H6.58333V22.6458C4.93634 22.3096 3.45609 21.4147 2.3931 20.1126C1.3301 18.8104 0.749657 17.1809 0.75 15.5C0.75 13.5661 1.51823 11.7115 2.88568 10.344C4.25313 8.97655 6.1078 8.20832 8.04167 8.20832C9.5 8.20832 10.9 8.64582 12.0521 9.41874L17.6375 3.83332ZM8.04167 11.125C6.88134 11.125 5.76855 11.5859 4.94807 12.4064C4.1276 13.2269 3.66667 14.3397 3.66667 15.5C3.66667 16.6603 4.1276 17.7731 4.94807 18.5936C5.76855 19.4141 6.88134 19.875 8.04167 19.875C9.20199 19.875 10.3148 19.4141 11.1353 18.5936C11.9557 17.7731 12.4167 16.6603 12.4167 15.5C12.4167 14.3397 11.9557 13.2269 11.1353 12.4064C10.3148 11.5859 9.20199 11.125 8.04167 11.125Z" fill="#6FCF97"/>
</svg>
