<svg width="18" height="18" viewBox="0 0 18 18" fill="none" xmlns="http://www.w3.org/2000/svg">
<path d="M13.9167 13.4917C13.7001 12.825 13.0751 12.3334 12.3334 12.3334H11.5001V9.83335C11.5001 9.61234 11.4123 9.40038 11.256 9.2441C11.0997 9.08782 10.8878 9.00002 10.6667 9.00002H5.66675V7.33335H7.33342C7.55443 7.33335 7.76639 7.24556 7.92267 7.08928C8.07895 6.933 8.16675 6.72103 8.16675 6.50002V4.83335H9.83342C10.2754 4.83335 10.6994 4.65776 11.0119 4.3452C11.3245 4.03264 11.5001 3.60871 11.5001 3.16669V2.82502C12.4971 3.22699 13.382 3.86458 14.0788 4.68322C14.7756 5.50185 15.2637 6.47714 15.5012 7.52561C15.7387 8.57408 15.7187 9.6645 15.4427 10.7035C15.1668 11.7425 14.6432 12.6992 13.9167 13.4917ZM8.16675 15.6084C4.87508 15.2 2.33341 12.4 2.33341 9.00002C2.33341 8.48335 2.40008 7.98335 2.50841 7.50835L6.50008 11.5V12.3334C6.50008 12.7754 6.67568 13.1993 6.98824 13.5119C7.3008 13.8244 7.72472 14 8.16675 14V15.6084ZM9.00008 0.666687C7.90573 0.666687 6.8221 0.882235 5.81105 1.30102C4.80001 1.71981 3.88135 2.33364 3.10752 3.10746C1.54472 4.67027 0.666748 6.78988 0.666748 9.00002C0.666748 11.2102 1.54472 13.3298 3.10752 14.8926C3.88135 15.6664 4.80001 16.2802 5.81105 16.699C6.8221 17.1178 7.90573 17.3334 9.00008 17.3334C11.2102 17.3334 13.3298 16.4554 14.8926 14.8926C16.4554 13.3298 17.3334 11.2102 17.3334 9.00002C17.3334 7.90567 17.1179 6.82204 16.6991 5.81099C16.2803 4.79994 15.6665 3.88129 14.8926 3.10746C14.1188 2.33364 13.2002 1.71981 12.1891 1.30102C11.1781 0.882235 10.0944 0.666687 9.00008 0.666687Z" fill="#AEBBD0"/>
</svg>
