<svg width="20" height="18" viewBox="0 0 20 18" fill="none" xmlns="http://www.w3.org/2000/svg">
<path d="M2.49992 2.33335V12.3334H17.4999V2.33335H2.49992ZM2.49992 0.666687H17.4999C17.9419 0.666687 18.3659 0.842282 18.6784 1.15484C18.991 1.4674 19.1666 1.89133 19.1666 2.33335V12.3334C19.1666 12.775 18.9916 13.2 18.6749 13.5084C18.3666 13.825 17.9416 14 17.4999 14H11.6666V15.6667H13.3333V17.3334H6.66658V15.6667H8.33325V14H2.49992C2.05825 14 1.63325 13.825 1.32492 13.5084C1.00825 13.2 0.833252 12.775 0.833252 12.3334V2.33335C0.833252 1.40835 1.57492 0.666687 2.49992 0.666687ZM9.03325 6.44169C9.29158 6.19169 9.64158 6.04169 9.99992 6.04169C10.3583 6.05002 10.7083 6.19169 10.9666 6.45002C11.2166 6.70002 11.3666 7.05002 11.3666 7.40835C11.3666 7.77502 11.2166 8.11669 10.9666 8.37502C10.7083 8.63335 10.3583 8.77502 9.99992 8.77502C9.64158 8.77502 9.29158 8.62502 9.03325 8.37502C8.78325 8.11669 8.63325 7.77502 8.63325 7.40835C8.63325 7.05002 8.78325 6.70002 9.03325 6.44169ZM8.39158 9.00002C8.59987 9.21638 8.84966 9.38848 9.12601 9.50604C9.40237 9.6236 9.6996 9.68419 9.99992 9.68419C10.3002 9.68419 10.5975 9.6236 10.8738 9.50604C11.1502 9.38848 11.4 9.21638 11.6083 9.00002C12.0333 8.58335 12.2749 8.00835 12.2749 7.40835C12.2749 6.80835 12.0333 6.22502 11.6083 5.80002C11.1833 5.37502 10.5999 5.13335 9.99992 5.13335C9.39992 5.13335 8.81658 5.37502 8.39158 5.80002C7.96658 6.22502 7.72492 6.80835 7.72492 7.40835C7.72492 8.00835 7.96658 8.58335 8.39158 9.00002ZM4.99992 7.40835C5.39481 6.40392 6.08294 5.54164 6.97473 4.93373C7.86651 4.32583 8.92065 4.00048 9.99992 4.00002C12.2749 4.00002 14.2166 5.41669 14.9999 7.40835C14.6078 8.41471 13.9204 9.27886 13.028 9.88719C12.1356 10.4955 11.0799 10.8196 9.99992 10.8167C7.72492 10.8167 5.78325 9.41669 4.99992 7.40835Z" fill="#AEBBD0"/>
</svg>
