<svg width="18" height="18" viewBox="0 0 18 18" fill="none" xmlns="http://www.w3.org/2000/svg">
<path d="M9.00008 15.6667C7.23197 15.6667 5.53628 14.9643 4.28604 13.7141C3.03579 12.4638 2.33341 10.7681 2.33341 9.00002C2.33341 7.23191 3.03579 5.53622 4.28604 4.28598C5.53628 3.03573 7.23197 2.33335 9.00008 2.33335C10.7682 2.33335 12.4639 3.03573 13.7141 4.28598C14.9644 5.53622 15.6667 7.23191 15.6667 9.00002C15.6667 10.7681 14.9644 12.4638 13.7141 13.7141C12.4639 14.9643 10.7682 15.6667 9.00008 15.6667ZM9.00008 0.666687C7.90573 0.666687 6.8221 0.882235 5.81105 1.30102C4.80001 1.71981 3.88135 2.33364 3.10752 3.10746C1.54472 4.67027 0.666748 6.78988 0.666748 9.00002C0.666748 11.2102 1.54472 13.3298 3.10752 14.8926C3.88135 15.6664 4.80001 16.2802 5.81105 16.699C6.8221 17.1178 7.90573 17.3334 9.00008 17.3334C11.2102 17.3334 13.3298 16.4554 14.8926 14.8926C16.4554 13.3298 17.3334 11.2102 17.3334 9.00002C17.3334 7.90567 17.1179 6.82204 16.6991 5.81099C16.2803 4.79994 15.6665 3.88129 14.8926 3.10746C14.1188 2.33364 13.2002 1.71981 12.1891 1.30102C11.1781 0.882235 10.0944 0.666687 9.00008 0.666687ZM9.00008 9.41669C8.66856 9.41669 8.35062 9.28499 8.1162 9.05057C7.88178 8.81615 7.75008 8.49821 7.75008 8.16669C7.75008 7.83517 7.88178 7.51722 8.1162 7.2828C8.35062 7.04838 8.66856 6.91669 9.00008 6.91669C9.3316 6.91669 9.64954 7.04838 9.88397 7.2828C10.1184 7.51722 10.2501 7.83517 10.2501 8.16669C10.2501 8.49821 10.1184 8.81615 9.88397 9.05057C9.64954 9.28499 9.3316 9.41669 9.00008 9.41669ZM9.00008 5.00002C7.25008 5.00002 5.83342 6.41669 5.83342 8.16669C5.83342 10.6667 9.00008 13.5834 9.00008 13.5834C9.00008 13.5834 12.1667 10.6667 12.1667 8.16669C12.1667 6.41669 10.7501 5.00002 9.00008 5.00002Z" fill="#AEBBD0"/>
</svg>
