<svg width="18" height="18" viewBox="0 0 18 18" fill="none" xmlns="http://www.w3.org/2000/svg">
<path d="M6.50008 17.3334C6.27907 17.3334 6.06711 17.2456 5.91083 17.0893C5.75455 16.933 5.66675 16.721 5.66675 16.5V14H2.33341C1.89139 14 1.46746 13.8244 1.1549 13.5119C0.842343 13.1993 0.666748 12.7754 0.666748 12.3334V2.33335C0.666748 1.89133 0.842343 1.4674 1.1549 1.15484C1.46746 0.842282 1.89139 0.666687 2.33341 0.666687H15.6667C16.1088 0.666687 16.5327 0.842282 16.8453 1.15484C17.1578 1.4674 17.3334 1.89133 17.3334 2.33335V12.3334C17.3334 12.7754 17.1578 13.1993 16.8453 13.5119C16.5327 13.8244 16.1088 14 15.6667 14H10.5834L7.50008 17.0917C7.33342 17.25 7.12508 17.3334 6.91675 17.3334H6.50008ZM7.33342 12.3334V14.9L9.90008 12.3334H15.6667V2.33335H2.33341V12.3334H7.33342ZM9.83342 7.33335H8.16675V4.00002H9.83342V7.33335ZM9.83342 10.6667H8.16675V9.00002H9.83342V10.6667Z" fill="#AEBBD0"/>
</svg>
