<svg width="18" height="18" viewBox="0 0 18 18" fill="none" xmlns="http://www.w3.org/2000/svg">
<path d="M9.0002 5.66666C9.88425 5.66666 10.7321 6.01785 11.3572 6.64297C11.9823 7.26809 12.3335 8.11594 12.3335 8.99999C12.3335 9.88405 11.9823 10.7319 11.3572 11.357C10.7321 11.9821 9.88425 12.3333 9.0002 12.3333C8.11614 12.3333 7.26829 11.9821 6.64317 11.357C6.01805 10.7319 5.66686 9.88405 5.66686 8.99999C5.66686 8.11594 6.01805 7.26809 6.64317 6.64297C7.26829 6.01785 8.11614 5.66666 9.0002 5.66666ZM9.0002 7.33332C8.55817 7.33332 8.13424 7.50892 7.82168 7.82148C7.50912 8.13404 7.33353 8.55796 7.33353 8.99999C7.33353 9.44202 7.50912 9.86594 7.82168 10.1785C8.13424 10.4911 8.55817 10.6667 9.0002 10.6667C9.44222 10.6667 9.86615 10.4911 10.1787 10.1785C10.4913 9.86594 10.6669 9.44202 10.6669 8.99999C10.6669 8.55796 10.4913 8.13404 10.1787 7.82148C9.86615 7.50892 9.44222 7.33332 9.0002 7.33332ZM7.33353 17.3333C7.1252 17.3333 6.9502 17.1833 6.91686 16.9833L6.60853 14.775C6.08353 14.5667 5.63353 14.2833 5.2002 13.95L3.1252 14.7917C2.94186 14.8583 2.71686 14.7917 2.61686 14.6083L0.950195 11.725C0.899192 11.6391 0.881211 11.5376 0.899616 11.4395C0.918021 11.3413 0.971551 11.2532 1.0502 11.1917L2.80853 9.80832L2.7502 8.99999L2.80853 8.16666L1.0502 6.80832C0.971551 6.74677 0.918021 6.65867 0.899616 6.56051C0.881211 6.46236 0.899192 6.36085 0.950195 6.27499L2.61686 3.39166C2.71686 3.20832 2.94186 3.13332 3.1252 3.20832L5.2002 4.04166C5.63353 3.71666 6.08353 3.43332 6.60853 3.22499L6.91686 1.01666C6.9502 0.816657 7.1252 0.666656 7.33353 0.666656H10.6669C10.8752 0.666656 11.0502 0.816657 11.0835 1.01666L11.3919 3.22499C11.9169 3.43332 12.3669 3.71666 12.8002 4.04166L14.8752 3.20832C15.0585 3.13332 15.2835 3.20832 15.3835 3.39166L17.0502 6.27499C17.1585 6.45832 17.1085 6.68332 16.9502 6.80832L15.1919 8.16666L15.2502 8.99999L15.1919 9.83332L16.9502 11.1917C17.1085 11.3167 17.1585 11.5417 17.0502 11.725L15.3835 14.6083C15.2835 14.7917 15.0585 14.8667 14.8752 14.7917L12.8002 13.9583C12.3669 14.2833 11.9169 14.5667 11.3919 14.775L11.0835 16.9833C11.0502 17.1833 10.8752 17.3333 10.6669 17.3333H7.33353ZM8.3752 2.33332L8.06686 4.50832C7.06686 4.71666 6.18353 5.24999 5.54186 5.99166L3.53353 5.12499L2.90853 6.20832L4.66686 7.49999C4.33353 8.47221 4.33353 9.52777 4.66686 10.5L2.9002 11.8L3.5252 12.8833L5.5502 12.0167C6.19186 12.75 7.06686 13.2833 8.05853 13.4833L8.36686 15.6667H9.63353L9.94186 13.4917C10.9335 13.2833 11.8085 12.75 12.4502 12.0167L14.4752 12.8833L15.1002 11.8L13.3335 10.5083C13.6669 9.53332 13.6669 8.47499 13.3335 7.49999L15.0919 6.20832L14.4669 5.12499L12.4585 5.99166C11.8037 5.23359 10.9155 4.71472 9.93353 4.51666L9.6252 2.33332H8.3752Z" fill="#387DFD"/>
</svg>
