<svg width="18" height="16" viewBox="0 0 18 16" fill="none" xmlns="http://www.w3.org/2000/svg">
<path d="M15.667 2.16667V13.8333H2.33366V2.16667H15.667ZM15.667 0.5H2.33366C1.40866 0.5 0.666992 1.24167 0.666992 2.16667V13.8333C0.666992 14.7583 1.40866 15.5 2.33366 15.5H15.667C16.592 15.5 17.3337 14.7583 17.3337 13.8333V2.16667C17.3337 1.24167 16.592 0.5 15.667 0.5ZM14.0003 10.5H4.00033V12.1667H14.0003V10.5ZM7.33366 3.83333H4.00033V8.83333H7.33366V3.83333ZM9.00033 5.5H14.0003V3.83333H9.00033V5.5ZM14.0003 7.16667H9.00033V8.83333H14.0003V7.16667Z" fill="#387DFD"/>
</svg>
