<svg width="18" height="18" viewBox="0 0 18 18" fill="none" xmlns="http://www.w3.org/2000/svg">
<path d="M9.00033 0.666656C7.90598 0.666656 6.82234 0.882205 5.8113 1.30099C4.80025 1.71978 3.88159 2.33361 3.10777 3.10743C1.54497 4.67024 0.666992 6.78985 0.666992 8.99999C0.666992 11.2101 1.54497 13.3297 3.10777 14.8925C3.88159 15.6664 4.80025 16.2802 5.8113 16.699C6.82234 17.1178 7.90598 17.3333 9.00033 17.3333C11.2105 17.3333 13.3301 16.4553 14.8929 14.8925C16.4557 13.3297 17.3337 11.2101 17.3337 8.99999C17.3337 8.03332 17.1587 7.07499 16.8253 6.17499L15.492 7.50832C15.6087 7.99999 15.667 8.49999 15.667 8.99999C15.667 10.7681 14.9646 12.4638 13.7144 13.714C12.4641 14.9643 10.7684 15.6667 9.00033 15.6667C7.23222 15.6667 5.53652 14.9643 4.28628 13.714C3.03604 12.4638 2.33366 10.7681 2.33366 8.99999C2.33366 7.23188 3.03604 5.53619 4.28628 4.28594C5.53652 3.0357 7.23222 2.33332 9.00033 2.33332C9.50033 2.33332 10.0003 2.39166 10.492 2.50832L11.8337 1.16666C10.9253 0.841656 9.96699 0.666656 9.00033 0.666656ZM14.8337 0.666656L11.5003 3.99999V5.24999L9.37533 7.37499C9.25033 7.33332 9.12533 7.33332 9.00033 7.33332C8.5583 7.33332 8.13438 7.50892 7.82182 7.82148C7.50925 8.13404 7.33366 8.55796 7.33366 8.99999C7.33366 9.44202 7.50925 9.86594 7.82182 10.1785C8.13438 10.4911 8.5583 10.6667 9.00033 10.6667C9.44235 10.6667 9.86628 10.4911 10.1788 10.1785C10.4914 9.86594 10.667 9.44202 10.667 8.99999C10.667 8.87499 10.667 8.74999 10.6253 8.62499L12.7503 6.49999H14.0003L17.3337 3.16666H14.8337V0.666656ZM9.00033 3.99999C7.67424 3.99999 6.40247 4.52677 5.46479 5.46446C4.52711 6.40214 4.00033 7.67391 4.00033 8.99999C4.00033 10.3261 4.52711 11.5978 5.46479 12.5355C6.40247 13.4732 7.67424 14 9.00033 14C10.3264 14 11.5982 13.4732 12.5359 12.5355C13.4735 11.5978 14.0003 10.3261 14.0003 8.99999H12.3337C12.3337 9.88405 11.9825 10.7319 11.3573 11.357C10.7322 11.9821 9.88438 12.3333 9.00033 12.3333C8.11627 12.3333 7.26842 11.9821 6.6433 11.357C6.01818 10.7319 5.66699 9.88405 5.66699 8.99999C5.66699 8.11594 6.01818 7.26809 6.6433 6.64297C7.26842 6.01785 8.11627 5.66666 9.00033 5.66666V3.99999Z" fill="#387DFD"/>
</svg>
