<svg width="19" height="19" viewBox="0 0 19 19" fill="none" xmlns="http://www.w3.org/2000/svg">
<path d="M6.2498 3.66666L4.16647 4.83332L5.33314 2.74999L4.16647 0.666656L6.2498 1.83332L8.33314 0.666656L7.16647 2.74999L8.33314 4.83332L6.2498 3.66666ZM16.2498 11.8333L18.3331 10.6667L17.1665 12.75L18.3331 14.8333L16.2498 13.6667L14.1665 14.8333L15.3331 12.75L14.1665 10.6667L16.2498 11.8333ZM18.3331 0.666656L17.1665 2.74999L18.3331 4.83332L16.2498 3.66666L14.1665 4.83332L15.3331 2.74999L14.1665 0.666656L16.2498 1.83332L18.3331 0.666656ZM11.1165 9.64999L13.1498 7.61666L11.3831 5.84999L9.3498 7.88332L11.1165 9.64999ZM11.9748 5.07499L13.9248 7.02499C14.2498 7.33332 14.2498 7.87499 13.9248 8.19999L4.1998 17.925C3.8748 18.25 3.33314 18.25 3.0248 17.925L1.0748 15.975C0.749805 15.6667 0.749805 15.125 1.0748 14.8L10.7998 5.07499C11.1248 4.74999 11.6665 4.74999 11.9748 5.07499Z" fill="#387DFD"/>
</svg>
