<svg width="22" height="14" viewBox="0 0 22 14" fill="none" xmlns="http://www.w3.org/2000/svg">
<path d="M11 4.25C11.7293 4.25 12.4288 4.53973 12.9445 5.05546C13.4602 5.57118 13.75 6.27065 13.75 7C13.75 7.72935 13.4602 8.42882 12.9445 8.94454C12.4288 9.46027 11.7293 9.75 11 9.75C10.2706 9.75 9.57114 9.46027 9.05542 8.94454C8.53969 8.42882 8.24996 7.72935 8.24996 7C8.24996 6.27065 8.53969 5.57118 9.05542 5.05546C9.57114 4.53973 10.2706 4.25 11 4.25ZM11 0.125C15.5833 0.125 19.4975 2.97583 21.0833 7C19.4975 11.0242 15.5833 13.875 11 13.875C6.41663 13.875 2.50246 11.0242 0.916626 7C2.50246 2.97583 6.41663 0.125 11 0.125ZM2.91496 7C3.65586 8.51278 4.80632 9.78735 6.23556 10.6788C7.66481 11.5703 9.31549 12.0429 11 12.0429C12.6844 12.0429 14.3351 11.5703 15.7644 10.6788C17.1936 9.78735 18.3441 8.51278 19.085 7C18.3441 5.48722 17.1936 4.21265 15.7644 3.32118C14.3351 2.42972 12.6844 1.95712 11 1.95712C9.31549 1.95712 7.66481 2.42972 6.23556 3.32118C4.80632 4.21265 3.65586 5.48722 2.91496 7Z" fill="#387DFD"/>
</svg>
