<svg width="17" height="17" viewBox="0 0 17 17" fill="none" xmlns="http://www.w3.org/2000/svg">
<path d="M14.625 0.625H2.375C1.91087 0.625 1.46575 0.809374 1.13756 1.13756C0.809374 1.46575 0.625 1.91087 0.625 2.375V14.625C0.625 15.0891 0.809374 15.5342 1.13756 15.8624C1.46575 16.1906 1.91087 16.375 2.375 16.375H14.625C15.0891 16.375 15.5342 16.1906 15.8624 15.8624C16.1906 15.5342 16.375 15.0891 16.375 14.625V2.375C16.375 1.91087 16.1906 1.46575 15.8624 1.13756C15.5342 0.809374 15.0891 0.625 14.625 0.625ZM14.625 2.375V14.625H2.375V2.375H14.625ZM6.75 12.875L3.25 9.375L4.48375 8.1325L6.75 10.3988L12.5163 4.6325L13.75 5.875" fill="#387DFD"/>
</svg>
