<svg width="17" height="19" viewBox="0 0 17 19" fill="none" xmlns="http://www.w3.org/2000/svg">
<path d="M5.875 8.75H4.125V10.5H5.875V8.75ZM9.375 8.75H7.625V10.5H9.375V8.75ZM12.875 8.75H11.125V10.5H12.875V8.75ZM14.625 2.625H13.75V0.875H12V2.625H5V0.875H3.25V2.625H2.375C1.91087 2.625 1.46575 2.80937 1.13756 3.13756C0.809374 3.46575 0.625 3.91087 0.625 4.375V16.625C0.625 17.0891 0.809374 17.5342 1.13756 17.8624C1.46575 18.1906 1.91087 18.375 2.375 18.375H14.625C15.0891 18.375 15.5342 18.1906 15.8624 17.8624C16.1906 17.5342 16.375 17.0891 16.375 16.625V4.375C16.375 3.91087 16.1906 3.46575 15.8624 3.13756C15.5342 2.80937 15.0891 2.625 14.625 2.625ZM14.625 16.625H2.375V7H14.625V16.625Z" fill="#387DFD"/>
</svg>
