<svg width="20" height="20" viewBox="0 0 20 20" fill="none" xmlns="http://www.w3.org/2000/svg">
<path d="M9.99965 6C11.0605 6 12.0779 6.42143 12.8281 7.17157C13.5782 7.92172 13.9996 8.93913 13.9996 10C13.9996 11.0609 13.5782 12.0783 12.8281 12.8284C12.0779 13.5786 11.0605 14 9.99965 14C8.93878 14 7.92137 13.5786 7.17122 12.8284C6.42108 12.0783 5.99965 11.0609 5.99965 10C5.99965 8.93913 6.42108 7.92172 7.17122 7.17157C7.92137 6.42143 8.93878 6 9.99965 6ZM9.99965 8C9.46922 8 8.96051 8.21071 8.58543 8.58579C8.21036 8.96086 7.99965 9.46957 7.99965 10C7.99965 10.5304 8.21036 11.0391 8.58543 11.4142C8.96051 11.7893 9.46922 12 9.99965 12C10.5301 12 11.0388 11.7893 11.4139 11.4142C11.7889 11.0391 11.9996 10.5304 11.9996 10C11.9996 9.46957 11.7889 8.96086 11.4139 8.58579C11.0388 8.21071 10.5301 8 9.99965 8ZM7.99965 20C7.74965 20 7.53965 19.82 7.49965 19.58L7.12965 16.93C6.49965 16.68 5.95965 16.34 5.43965 15.94L2.94965 16.95C2.72965 17.03 2.45965 16.95 2.33965 16.73L0.339648 13.27C0.278444 13.167 0.256867 13.0452 0.278953 12.9274C0.301039 12.8096 0.365275 12.7039 0.459649 12.63L2.56965 10.97L2.49965 10L2.56965 9L0.459649 7.37C0.365275 7.29613 0.301039 7.19042 0.278953 7.07263C0.256867 6.95484 0.278444 6.83304 0.339648 6.73L2.33965 3.27C2.45965 3.05 2.72965 2.96 2.94965 3.05L5.43965 4.05C5.95965 3.66 6.49965 3.32 7.12965 3.07L7.49965 0.42C7.53965 0.18 7.74965 0 7.99965 0H11.9996C12.2496 0 12.4596 0.18 12.4996 0.42L12.8696 3.07C13.4996 3.32 14.0396 3.66 14.5596 4.05L17.0496 3.05C17.2696 2.96 17.5396 3.05 17.6596 3.27L19.6596 6.73C19.7896 6.95 19.7297 7.22 19.5396 7.37L17.4296 9L17.4996 10L17.4296 11L19.5396 12.63C19.7297 12.78 19.7896 13.05 19.6596 13.27L17.6596 16.73C17.5396 16.95 17.2696 17.04 17.0496 16.95L14.5596 15.95C14.0396 16.34 13.4996 16.68 12.8696 16.93L12.4996 19.58C12.4596 19.82 12.2496 20 11.9996 20H7.99965ZM9.24965 2L8.87965 4.61C7.67965 4.86 6.61965 5.5 5.84965 6.39L3.43965 5.35L2.68965 6.65L4.79965 8.2C4.39965 9.36667 4.39965 10.6333 4.79965 11.8L2.67965 13.36L3.42965 14.66L5.85965 13.62C6.62965 14.5 7.67965 15.14 8.86965 15.38L9.23965 18H10.7596L11.1296 15.39C12.3196 15.14 13.3696 14.5 14.1396 13.62L16.5696 14.66L17.3196 13.36L15.1996 11.81C15.5996 10.64 15.5996 9.37 15.1996 8.2L17.3096 6.65L16.5596 5.35L14.1496 6.39C13.3639 5.48032 12.298 4.85767 11.1196 4.62L10.7496 2H9.24965Z" fill="#387DFD"/>
</svg>
