<svg width="33" height="25" viewBox="0 0 33 25" fill="none" xmlns="http://www.w3.org/2000/svg">
<path d="M6.29232 16.875L5.41732 16.1458C2.50065 13.375 0.458984 11.625 0.458984 9.43749C0.458984 7.68749 1.91732 6.22916 3.66732 6.22916C4.68815 6.22916 5.70898 6.66666 6.29232 7.39583C6.87565 6.66666 7.89648 6.22916 8.91732 6.22916C10.6673 6.22916 12.1257 7.54166 12.1257 9.43749C12.1257 11.625 10.084 13.375 7.16732 16.1458L6.29232 16.875ZM20.8757 0.833328C19.3286 0.833328 17.8448 1.44791 16.7509 2.54187C15.6569 3.63583 15.0423 5.11957 15.0423 6.66666C15.0423 8.21376 15.6569 9.69749 16.7509 10.7915C17.8448 11.8854 19.3286 12.5 20.8757 12.5C22.4227 12.5 23.9065 11.8854 25.0004 10.7915C26.0944 9.69749 26.709 8.21376 26.709 6.66666C26.709 5.11957 26.0944 3.63583 25.0004 2.54187C23.9065 1.44791 22.4227 0.833328 20.8757 0.833328ZM20.8757 9.72916C20.0634 9.72916 19.2845 9.40651 18.7101 8.83218C18.1358 8.25785 17.8132 7.47889 17.8132 6.66666C17.8132 5.85444 18.1358 5.07548 18.7101 4.50115C19.2845 3.92682 20.0634 3.60416 20.8757 3.60416C21.2778 3.60416 21.6761 3.68338 22.0476 3.83728C22.4192 3.99119 22.7568 4.21677 23.0412 4.50115C23.3255 4.78553 23.5511 5.12313 23.705 5.49469C23.8589 5.86625 23.9382 6.26449 23.9382 6.66666C23.9382 7.06883 23.8589 7.46707 23.705 7.83863C23.5511 8.21019 23.3255 8.5478 23.0412 8.83218C22.7568 9.11656 22.4192 9.34214 22.0476 9.49604C21.6761 9.64995 21.2778 9.72916 20.8757 9.72916ZM20.8757 13.9583C16.9819 13.9583 9.20898 15.8979 9.20898 19.7917V24.1667H32.5423V19.7917C32.5423 15.8979 24.7694 13.9583 20.8757 13.9583ZM29.7715 21.3958H11.9798V19.7917C11.9798 18.8583 16.5007 16.7292 20.8757 16.7292C25.2069 16.7292 29.7715 18.8583 29.7715 19.7917V21.3958Z" fill="#DB4D8F"/>
</svg>
