<svg width="21" height="20" viewBox="0 0 21 20" fill="none" xmlns="http://www.w3.org/2000/svg">
<path d="M8 9C7.65 9.59 7.36 10.24 7.19 10.93C4.5 11.16 1.9 12.42 1.9 13V14.1H7.2C7.37 14.78 7.65 15.42 8 16H0V13C0 10.34 5.33 9 8 9ZM8 0C9.06087 0 10.0783 0.421427 10.8284 1.17157C11.5786 1.92172 12 2.93913 12 4C12 4.91 11.69 5.75 11.18 6.43C10.32 6.75 9.55 7.26 8.91 7.9L8 8C6.93913 8 5.92172 7.57857 5.17157 6.82843C4.42143 6.07828 4 5.06087 4 4C4 2.93913 4.42143 1.92172 5.17157 1.17157C5.92172 0.421427 6.93913 0 8 0ZM8 1.9C7.44305 1.9 6.9089 2.12125 6.51508 2.51508C6.12125 2.9089 5.9 3.44305 5.9 4C5.9 4.55695 6.12125 5.0911 6.51508 5.48492C6.9089 5.87875 7.44305 6.1 8 6.1C8.55695 6.1 9.0911 5.87875 9.48492 5.48492C9.87875 5.0911 10.1 4.55695 10.1 4C10.1 3.44305 9.87875 2.9089 9.48492 2.51508C9.0911 2.12125 8.55695 1.9 8 1.9ZM13.5 8C16 8 18 10 18 12.5C18 13.38 17.75 14.21 17.31 14.9L20.39 18L19 19.39L15.88 16.32C15.19 16.75 14.37 17 13.5 17C11 17 9 15 9 12.5C9 10 11 8 13.5 8ZM13.5 10C12.837 10 12.2011 10.2634 11.7322 10.7322C11.2634 11.2011 11 11.837 11 12.5C11 13.163 11.2634 13.7989 11.7322 14.2678C12.2011 14.7366 12.837 15 13.5 15C14.163 15 14.7989 14.7366 15.2678 14.2678C15.7366 13.7989 16 13.163 16 12.5C16 11.837 15.7366 11.2011 15.2678 10.7322C14.7989 10.2634 14.163 10 13.5 10Z" fill="#AEBBD0"/>
</svg>
