<svg width="31" height="27" viewBox="0 0 31 27" fill="none" xmlns="http://www.w3.org/2000/svg">
<path d="M15.4994 0.375C7.47852 0.375 0.916016 5.59583 0.916016 12.0417C0.952632 13.5914 1.3311 15.114 2.02436 16.5005C2.71763 17.8871 3.70859 19.1033 4.92643 20.0625C4.92643 20.9375 4.31393 23.2271 0.916016 26.625C4.37227 26.4646 7.68268 25.1667 10.3514 22.9792C12.0139 23.4604 13.7639 23.7083 15.4994 23.7083C23.5202 23.7083 30.0827 18.4875 30.0827 12.0417C30.0827 5.59583 23.5202 0.375 15.4994 0.375ZM15.4994 20.7917C9.05352 20.7917 3.83268 16.8687 3.83268 12.0417C3.83268 7.21458 9.05352 3.29167 15.4994 3.29167C21.9452 3.29167 27.166 7.21458 27.166 12.0417C27.166 16.8687 21.9452 20.7917 15.4994 20.7917ZM22.791 13.5V10.5833H19.8744V13.5H22.791ZM16.9577 13.5V10.5833H14.041V13.5H16.9577ZM11.1243 13.5V10.5833H8.20768V13.5H11.1243Z" fill="#56CCF2"/>
</svg>
